<mxfile host="" modified="2020-07-04T07:26:45.463Z" agent="5.0 (Macintosh; Intel Mac OS X 10_14_4) AppleWebKit/537.36 (KHTML, like Gecko) Code/1.46.1 Chrome/78.0.3904.130 Electron/7.3.1 Safari/537.36" etag="Zty2NdUyPC98YAhE0Kdn" version="13.1.3">
    <diagram id="6hGFLwfOUW9BJ-s0fimq" name="Page-1">
        <mxGraphModel dx="603" dy="316" grid="1" gridSize="10" guides="1" tooltips="1" connect="1" arrows="1" fold="1" page="1" pageScale="1" pageWidth="827" pageHeight="1169" math="0" shadow="0">
            <root>
                <mxCell id="0"/>
                <mxCell id="1" parent="0"/>
                <mxCell id="2" value="" style="rounded=0;whiteSpace=wrap;html=1;strokeWidth=1;perimeterSpacing=1;shadow=0;glass=0;gradientColor=none;" parent="1" vertex="1">
                    <mxGeometry x="40" y="160" width="650" height="40" as="geometry"/>
                </mxCell>
                <mxCell id="6" value="" style="line;strokeWidth=2;direction=south;html=1;" parent="1" vertex="1">
                    <mxGeometry x="236" y="160" width="10" height="40" as="geometry"/>
                </mxCell>
                <mxCell id="11" value="" style="rounded=0;whiteSpace=wrap;html=1;shadow=0;glass=0;strokeWidth=1;" parent="1" vertex="1">
                    <mxGeometry x="40" y="160" width="160" height="40" as="geometry"/>
                </mxCell>
                <mxCell id="12" value="header" style="text;strokeColor=none;fillColor=none;html=1;fontSize=14;fontStyle=1;verticalAlign=middle;align=center;rounded=0;shadow=0;glass=0;" parent="1" vertex="1">
                    <mxGeometry x="52.5" y="120" width="55" height="40" as="geometry"/>
                </mxCell>
                <mxCell id="5" value="" style="line;strokeWidth=2;direction=south;html=1;" parent="1" vertex="1">
                    <mxGeometry x="75" y="160" width="10" height="40" as="geometry"/>
                </mxCell>
                <mxCell id="15" value="" style="line;strokeWidth=2;direction=south;html=1;" parent="1" vertex="1">
                    <mxGeometry x="115" y="160" width="10" height="40" as="geometry"/>
                </mxCell>
                <mxCell id="16" value="" style="line;strokeWidth=2;direction=south;html=1;" parent="1" vertex="1">
                    <mxGeometry x="156" y="160" width="10" height="40" as="geometry"/>
                </mxCell>
                <mxCell id="17" value="0x00" style="text;html=1;align=center;verticalAlign=middle;resizable=0;points=[];autosize=1;" parent="1" vertex="1">
                    <mxGeometry x="40" y="170" width="40" height="20" as="geometry"/>
                </mxCell>
                <mxCell id="18" value="0x02" style="text;html=1;align=center;verticalAlign=middle;resizable=0;points=[];autosize=1;" parent="1" vertex="1">
                    <mxGeometry x="80" y="170" width="40" height="20" as="geometry"/>
                </mxCell>
                <mxCell id="19" value="0x61" style="text;html=1;align=center;verticalAlign=middle;resizable=0;points=[];autosize=1;" parent="1" vertex="1">
                    <mxGeometry x="121" y="170" width="40" height="20" as="geometry"/>
                </mxCell>
                <mxCell id="20" value="0x62" style="text;html=1;align=center;verticalAlign=middle;resizable=0;points=[];autosize=1;" parent="1" vertex="1">
                    <mxGeometry x="155" y="170" width="40" height="20" as="geometry"/>
                </mxCell>
                <mxCell id="21" value="data" style="text;strokeColor=none;fillColor=none;html=1;fontSize=14;fontStyle=1;verticalAlign=middle;align=center;rounded=0;shadow=0;glass=0;" parent="1" vertex="1">
                    <mxGeometry x="132" y="120" width="55" height="40" as="geometry"/>
                </mxCell>
                <mxCell id="22" value="" style="endArrow=none;dashed=1;html=1;fillColor=#d5e8d4;strokeColor=#82b366;strokeWidth=4;" parent="1" edge="1">
                    <mxGeometry width="50" height="50" relative="1" as="geometry">
                        <mxPoint x="120" y="238" as="sourcePoint"/>
                        <mxPoint x="120" y="110" as="targetPoint"/>
                    </mxGeometry>
                </mxCell>
                <mxCell id="23" value="" style="line;strokeWidth=2;direction=south;html=1;" parent="1" vertex="1">
                    <mxGeometry x="276" y="160" width="10" height="40" as="geometry"/>
                </mxCell>
                <mxCell id="24" value="" style="line;strokeWidth=2;direction=south;html=1;" parent="1" vertex="1">
                    <mxGeometry x="260" y="430" width="10" height="40" as="geometry"/>
                </mxCell>
                <mxCell id="25" value="" style="line;strokeWidth=2;direction=south;html=1;" parent="1" vertex="1">
                    <mxGeometry x="314" y="160" width="10" height="40" as="geometry"/>
                </mxCell>
                <mxCell id="26" value="" style="line;strokeWidth=2;direction=south;html=1;" parent="1" vertex="1">
                    <mxGeometry x="355" y="160" width="10" height="40" as="geometry"/>
                </mxCell>
                <mxCell id="27" value="" style="line;strokeWidth=2;direction=south;html=1;" parent="1" vertex="1">
                    <mxGeometry x="395" y="160" width="10" height="40" as="geometry"/>
                </mxCell>
                <mxCell id="28" value="" style="line;strokeWidth=2;direction=south;html=1;" parent="1" vertex="1">
                    <mxGeometry x="435" y="160" width="10" height="40" as="geometry"/>
                </mxCell>
                <mxCell id="30" value="" style="endArrow=none;dashed=1;html=1;fillColor=#d5e8d4;strokeColor=#82b366;strokeWidth=4;" parent="1" edge="1">
                    <mxGeometry width="50" height="50" relative="1" as="geometry">
                        <mxPoint x="200" y="238" as="sourcePoint"/>
                        <mxPoint x="200" y="110" as="targetPoint"/>
                    </mxGeometry>
                </mxCell>
                <mxCell id="31" value="" style="endArrow=none;dashed=1;html=1;fillColor=#d5e8d4;strokeColor=#82b366;strokeWidth=4;" parent="1" edge="1">
                    <mxGeometry width="50" height="50" relative="1" as="geometry">
                        <mxPoint x="280.5" y="239" as="sourcePoint"/>
                        <mxPoint x="281" y="110" as="targetPoint"/>
                    </mxGeometry>
                </mxCell>
                <mxCell id="32" value="" style="endArrow=none;dashed=1;html=1;fillColor=#d5e8d4;strokeColor=#82b366;strokeWidth=4;" parent="1" edge="1">
                    <mxGeometry width="50" height="50" relative="1" as="geometry">
                        <mxPoint x="439.5" y="237" as="sourcePoint"/>
                        <mxPoint x="440" y="110" as="targetPoint"/>
                    </mxGeometry>
                </mxCell>
                <mxCell id="33" value="0x00" style="text;html=1;align=center;verticalAlign=middle;resizable=0;points=[];autosize=1;" parent="1" vertex="1">
                    <mxGeometry x="201" y="170" width="40" height="20" as="geometry"/>
                </mxCell>
                <mxCell id="34" value="0x04" style="text;html=1;align=center;verticalAlign=middle;resizable=0;points=[];autosize=1;" parent="1" vertex="1">
                    <mxGeometry x="241" y="170" width="40" height="20" as="geometry"/>
                </mxCell>
                <mxCell id="36" value="0x65" style="text;html=1;align=center;verticalAlign=middle;resizable=0;points=[];autosize=1;" parent="1" vertex="1">
                    <mxGeometry x="281" y="170" width="40" height="20" as="geometry"/>
                </mxCell>
                <mxCell id="37" value="0x65" style="text;html=1;align=center;verticalAlign=middle;resizable=0;points=[];autosize=1;" parent="1" vertex="1">
                    <mxGeometry x="320" y="170" width="40" height="20" as="geometry"/>
                </mxCell>
                <mxCell id="38" value="0x66" style="text;html=1;align=center;verticalAlign=middle;resizable=0;points=[];autosize=1;" parent="1" vertex="1">
                    <mxGeometry x="360" y="170" width="40" height="20" as="geometry"/>
                </mxCell>
                <mxCell id="39" value="0x66" style="text;html=1;align=center;verticalAlign=middle;resizable=0;points=[];autosize=1;" parent="1" vertex="1">
                    <mxGeometry x="400" y="170" width="40" height="20" as="geometry"/>
                </mxCell>
                <mxCell id="40" value="header" style="text;strokeColor=none;fillColor=none;html=1;fontSize=14;fontStyle=1;verticalAlign=middle;align=center;rounded=0;shadow=0;glass=0;" parent="1" vertex="1">
                    <mxGeometry x="213.5" y="120" width="55" height="40" as="geometry"/>
                </mxCell>
                <mxCell id="42" value="data" style="text;strokeColor=none;fillColor=none;html=1;fontSize=14;fontStyle=1;verticalAlign=middle;align=center;rounded=0;shadow=0;glass=0;" parent="1" vertex="1">
                    <mxGeometry x="332.5" y="120" width="55" height="40" as="geometry"/>
                </mxCell>
                <mxCell id="43" value="..." style="text;html=1;align=center;verticalAlign=middle;resizable=0;points=[];autosize=1;strokeWidth=16;fontsize:16px;" parent="1" vertex="1">
                    <mxGeometry x="445" y="170" width="30" height="20" as="geometry"/>
                </mxCell>
                <mxCell id="45" value="..." style="text;html=1;align=center;verticalAlign=middle;resizable=0;points=[];autosize=1;strokeWidth=16;fontsize:16px;" parent="1" vertex="1">
                    <mxGeometry x="460" y="170" width="30" height="20" as="geometry"/>
                </mxCell>
            </root>
        </mxGraphModel>
    </diagram>
</mxfile>